<?xml version="1.0" encoding="UTF-8"?>
<svg version="1.1" xmlns="http://www.w3.org/2000/svg" width="1024" height="1024">
<path d="M0 0 C337.92 0 675.84 0 1024 0 C1024 337.92 1024 675.84 1024 1024 C686.08 1024 348.16 1024 0 1024 C0 686.08 0 348.16 0 0 Z " fill="#162940" transform="translate(0,0)"/>
<path d="M0 0 C29.7 0 59.4 0 90 0 C98.00971591 11.4424513 105.98322394 22.88218425 113.8515625 34.41796875 C116.85814346 38.80942716 119.92023628 43.15966534 123 47.5 C128.92307408 55.84921686 134.70076105 64.2943044 140.46679688 72.75244141 C142.74286047 76.08897668 145.02562415 79.42086783 147.3125 82.75 C147.74353027 83.37753174 148.17456055 84.00506348 148.61865234 84.65161133 C152.08005618 89.68191108 155.56984761 94.69219282 159.06201172 99.70117188 C164.43113334 107.40270999 169.78994238 115.10127832 174.9609375 122.9375 C179.37192132 129.56242589 183.89871197 136.10973868 188.40234375 142.671875 C189.84222888 144.77009393 191.28069573 146.86927611 192.71875 148.96875 C196.70686666 154.78525322 200.70997028 160.59047779 204.75 166.37109375 C211.89784664 176.60205244 218.95511484 186.877611 225.84423828 197.28466797 C231.00148041 205.05358099 236.33918577 212.68823265 241.70703125 220.3125 C245.06823865 225.08737174 248.37879457 229.89551627 251.67651367 234.71435547 C254.38079784 238.66024773 257.107504 242.58945247 259.8515625 246.5078125 C260.53686035 247.4877417 261.2221582 248.4676709 261.92822266 249.47729492 C263.25093534 251.36721848 264.57590363 253.25556675 265.90380859 255.1418457 C271.84057498 263.63085971 277.35827289 272.2809672 283 281 C283.33 188.27 283.66 95.54 284 0 C314.36 0 344.72 0 376 0 C381.28 9.24 386.56 18.48 392 28 C397.24938383 37.01240438 397.24938383 37.01240438 402.5078125 46.01953125 C411.34201534 61.13932172 420.09420598 76.2967186 428.5625 91.625 C434.94309911 103.1731314 441.54039965 114.58021561 448.21875 125.95800781 C456.90552492 140.79315249 465.43073944 155.71531918 473.79418945 170.73486328 C477.83900197 177.97932066 481.98586585 185.15800927 486.1875 192.3125 C490.92775252 200.38428949 495.53116697 208.51351969 500.00610352 216.73510742 C504.53152429 225.0296042 509.27560518 233.193835 514.05126953 241.34619141 C514.73812309 242.54350123 515.38269641 243.76539281 516 245 C516.33 164.48 516.66 83.96 517 1 C544.06 1 571.12 1 599 1 C599 155.77 599 310.54 599 470 C592.4 470 585.8 470 579 470 C575.80054688 470.13664062 572.60109375 470.27328125 569.3046875 470.4140625 C545.79908187 471.16790789 545.79908187 471.16790789 539.61181641 467.63720703 C535.92794481 463.79245819 534.61487765 458.95166453 533.07714844 453.95800781 C531.17494706 448.73428345 528.21383394 444.09644204 525.36831665 439.33950806 C523.58828096 436.34359228 521.8682113 433.31373075 520.14453125 430.28515625 C519.79809067 429.67844589 519.45165009 429.07173553 519.0947113 428.44664001 C515.50954803 422.16084318 512.00168556 415.83260874 508.5 409.5 C503.38410935 400.24945003 498.19585896 391.04495706 492.9375 381.875 C486.12189294 369.98782414 479.3992967 358.0509401 472.72216797 346.08544922 C463.73157284 329.97783067 454.69643553 313.89587731 445.60888672 297.84277344 C443.4470198 294.02292846 441.28738945 290.20182143 439.12792969 286.38061523 C438.04149145 284.458167 436.95490258 282.53580389 435.86816406 280.61352539 C433.19522142 275.88542778 430.52372986 271.1565226 427.85546875 266.42578125 C421.9347469 255.93262074 415.98324371 245.4576076 410 235 C403.49430547 223.62924463 397.02996438 212.23571561 390.59423828 200.82519531 C388.93813299 197.8903637 387.27992924 194.95672675 385.62109375 192.0234375 C385.05672607 191.02546143 384.4923584 190.02748535 383.91088867 188.99926758 C382.85773302 187.13708776 381.80451762 185.27494172 380.7512207 183.4128418 C376.15457755 175.28241119 371.57901524 167.14047153 367 159 C366.67 261.3 366.34 363.6 366 469 C353.13 469.33 340.26 469.66 327 470 C316.54690264 470.51982298 316.54690264 470.51982298 306.09765625 471.109375 C302.89561197 470.78917057 301.44557689 470.39836235 299.03466797 468.24291992 C297.27233956 465.89555054 295.71099252 463.4885077 294.20407104 460.97076416 C292.30021749 457.85463047 290.24600172 454.84076294 288.21490479 451.80662537 C285.76084473 448.13107612 283.34005464 444.43405051 280.91738892 440.73776245 C277.67290699 435.7878219 274.41965651 430.84364602 271.16796875 425.8984375 C270.5352153 424.9355632 269.90246185 423.9726889 269.25053406 422.9806366 C262.8325201 413.21639873 256.35627266 403.49185765 249.85888672 393.78027344 C246.73374401 389.10610412 243.61638841 384.42674487 240.4982605 379.74789429 C238.61633973 376.92416951 236.73392445 374.10077443 234.8515625 371.27734375 C234.06412523 370.09619299 233.27669039 368.91504061 232.48925781 367.73388672 C232.08582153 367.1287323 231.68238525 366.52357788 231.26672363 365.90008545 C204.40625 325.609375 204.40625 325.609375 202.80932617 323.21386719 C201.75755539 321.63629335 200.70563137 320.05882167 199.65356445 318.48144531 C196.39924715 313.60160846 193.14794204 308.71978219 189.89932251 303.83615112 C176.29400063 283.3854844 162.62276967 262.98083821 148.87084961 242.62841797 C142.61993538 233.37637221 136.39109763 224.11073821 130.2074585 214.81359863 C128.10221193 211.65152531 125.9900543 208.49407224 123.87890625 205.3359375 C112.44526027 188.22231237 101.09400969 171.05784307 89.84912109 153.81958008 C87.91456553 150.86972766 85.95677399 147.93516099 84 145 C83.67 252.25 83.34 359.5 83 470 C2 470 2 470 0 469 C0 314.23 0 159.46 0 0 Z " fill="#FEFEFE" transform="translate(213,276)"/>
<path d="M0 0 C3 3 3 3 3.36733413 5.4489423 C3.36369928 6.43149617 3.36006443 7.41405003 3.35631943 8.42637825 C3.3609791 10.12734317 3.3609791 10.12734317 3.36573291 11.86267102 C3.35378556 13.11391762 3.3418382 14.36516423 3.32952881 15.65432739 C3.32742339 16.99263778 3.32663687 18.33095079 3.32705998 19.66926277 C3.32437162 23.35479735 3.30284298 27.04002134 3.27831292 30.72546649 C3.2551363 34.69681218 3.24927023 38.66818738 3.24128723 42.6395874 C3.222902 50.42211538 3.18849004 58.20449496 3.14880887 65.98694028 C3.10327567 75.04151116 3.07385619 84.09611241 3.04523364 93.15074991 C2.99366499 109.30026599 2.92791797 125.44969313 2.85400391 141.59912109 C2.78222102 157.2865952 2.7195565 172.97406892 2.66748047 188.66162109 C2.66427071 189.62805409 2.66106094 190.59448708 2.65775391 191.59020592 C2.65129446 193.53696935 2.64483564 195.48373278 2.63837744 197.43049621 C2.63519027 198.39071245 2.63200309 199.35092869 2.62871933 200.34024239 C2.62554352 201.29796199 2.62236771 202.25568159 2.61909567 203.24242301 C2.56926591 218.17020665 2.51178925 233.09796206 2.45324342 248.02571372 C2.43205501 253.4450207 2.41186492 258.86433034 2.39235893 264.28364362 C2.36135444 272.87713572 2.32703378 281.47060062 2.28587118 290.06405057 C2.26710216 293.99320774 2.24990291 297.92235475 2.23695564 301.8515358 C2.2250571 305.44255241 2.20858861 309.03351682 2.18832853 312.62449573 C2.17864884 314.55125528 2.1738815 316.47803752 2.16924071 318.40481579 C2.16191617 319.53357691 2.15459163 320.66233803 2.14704514 321.82530403 C2.14061875 323.29864777 2.14061875 323.29864777 2.13406253 324.80175602 C2 327 2 327 1 328 C-1.61688441 328.09509559 -4.207289 328.12556 -6.82446289 328.11352539 C-7.64390884 328.11367142 -8.4633548 328.11381744 -9.30763245 328.1139679 C-12.02933353 328.11326852 -14.75096705 328.10547501 -17.47265625 328.09765625 C-19.35452741 328.09579216 -21.23639906 328.09436821 -23.11827087 328.09336853 C-28.08148529 328.08954267 -33.04467064 328.07971181 -38.00787354 328.06866455 C-43.06839606 328.0584519 -48.12892327 328.05387122 -53.18945312 328.04882812 C-63.12631488 328.0380896 -73.06315503 328.02101236 -83 328 C-83 327.67 -83 327.34 -83 327 C-55.61 327 -28.22 327 0 327 C0 219.09 0 111.18 0 0 Z " fill="#041124" transform="translate(296,419)"/>
<path d="M0 0 C3 3 3 3 3.33790874 6.27397442 C3.33580743 7.65677547 3.3167786 9.03960919 3.28483582 10.42204285 C3.27643007 11.56519887 3.27643007 11.56519887 3.26785451 12.73144895 C3.24531843 15.29293708 3.20107268 17.85359375 3.15698242 20.41479492 C3.1364186 22.24771229 3.11718889 24.08064505 3.09919739 25.91358948 C3.04648472 30.89696046 2.9750446 35.87990994 2.90032363 40.862993 C2.82543433 46.06790238 2.76765385 51.27300045 2.70808411 56.47810364 C2.5926296 66.3379884 2.46171542 76.19760531 2.32529193 86.0572198 C2.17074755 97.28063334 2.03336881 108.50423625 1.89745557 119.72788846 C1.61744878 142.81885457 1.31580814 165.90949777 1 189 C0.67 189 0.34 189 0 189 C0 126.63 0 64.26 0 0 Z " fill="#0B182B" transform="translate(296,419)"/>
</svg>
